<?xml version="1.0" encoding="utf-8"?>
<svg version="1.1" id="svg2" width="653.17334" height="489.88" viewBox="0 0 653.17334 489.88" xmlns="http://www.w3.org/2000/svg">
    <g id="g8" transform="matrix(1.3333333,0,0,-1.3333333,0,489.88)">
        <g id="g10" transform="scale(0.1)">
            <path d="M 459.34,2256.04 V 612.34 c 0.09,-84.488 68.515,-152.988 153.008,-153.168 H 4286.42 c 84.45,0.18 152.9,68.547 153.17,153.008 V 2256.04 L 3081,1140.43 c -370.28,-301.371 -901.28,-301.371 -1271.56,0 z m 0,805.68 V 2850.26 L 2109.73,1494.94 c 197.22,-162.67 482.08,-162.67 679.3,0 l 1650.39,1355.32 v 219.63 c -3.26,83.11 -69.89,149.74 -153,153 H 612.348 c -83.211,-3.18 -149.907,-69.95 -153.008,-153.16 z m -459.34,0 c 0,338.19 274.156,612.35 612.348,612.35 v 0 H 4286.42 c 338.11,-0.18 612.17,-274.23 612.35,-612.35 V 612.34 C 4898.5,274.262 4624.5,0.269531 4286.42,0 H 612.348 C 274.23,0.179688 0.179688,274.23 0,612.34 v 2449.38" style="fill-opacity: 1; fill-rule: nonzero; stroke: none; fill: rgb(235, 98, 56);" id="path12" />
        </g>
    </g>
</svg>