<?xml version="1.0" encoding="utf-8"?>
<svg version="1.1" id="svg2" width="628.64001" height="629.23999" viewBox="0 0 628.64001 629.23999" xmlns="http://www.w3.org/2000/svg">
    <g id="g8" transform="matrix(1.3333333,0,0,-1.3333333,0,629.24)">
        <g id="g10" transform="scale(0.1)">
            <path d="m 4276.01,1315.32 -194.4,-842.531 c -6.71,-16.207 -21.46,-27.68 -38.82,-30.18 C 2055.34,444.691 444.664,2055.23 442.41,4042.68 c -0.472,18.9 12.848,35.35 31.434,38.82 l 841.276,194.4 c 2.89,0.67 5.84,0.99 8.8,0.94 16.04,-0.07 30.58,-9.46 37.25,-24.04 l 388.5,-906.34 c 7.2,-16.51 2.51,-35.8 -11.48,-47.15 l -449.47,-359.9 c -79.48,-65.1 -103.69,-176.34 -58.47,-268.58 306.99,-622.5 810.8,-1126.31 1433.3,-1433.3 92.41,-44.29 203.09,-20.21 268.75,58.46 l 368.06,450.42 c 11.01,13.41 29.69,17.68 45.42,10.38 l 905.72,-388.03 c 16.98,-12.28 26.28,-32.56 24.51,-53.44 z M 4427.2,1767 3521.96,2155.03 c -197.68,85.38 -428.02,29.1 -564.05,-137.83 L 2705.04,1708.38 C 2293.53,1945.91 1950.57,2286 1709.59,2695.5 l 309.29,253.34 c 165.54,136.33 221.85,365.22 138.46,562.79 l -390.39,917.03 c -93.06,213.4 -324.85,330.32 -551.78,278.33 L 374.047,4512.9 C 154.445,4463.39 -1.15234,4267.79 0.0078125,4042.68 2.25781,1810.87 1810.98,2.21875 4042.79,0.0507813 4266.68,-3.16797 4460.93,153.988 4504.52,373.621 l 194.57,841.909 C 4759.07,1441.47 4642.95,1677 4427.2,1767" style="fill-opacity: 1; fill-rule: nonzero; stroke: none; fill: rgb(66, 148, 133);" id="path12" />
        </g>
    </g>
</svg>