<svg width="336" height="336" viewBox="0 0 336 336" fill="none" xmlns="http://www.w3.org/2000/svg">
<mask id="path-1-inside-1_6_862" fill="white">
<path d="M252 252C268.614 235.386 279.928 214.219 284.511 191.176C289.095 168.132 286.743 144.246 277.751 122.54C268.76 100.833 253.534 82.2797 233.998 69.2265C214.463 56.1732 191.495 49.2061 168 49.2061C144.505 49.2061 121.537 56.1732 102.002 69.2265C82.4661 82.2797 67.2399 100.833 58.2487 122.54C49.2575 144.246 46.905 168.132 51.4886 191.176C56.0723 214.219 67.3864 235.386 84 252L93.9816 242.018C79.3421 227.379 69.3725 208.727 65.3335 188.422C61.2945 168.116 63.3675 147.069 71.2903 127.942C79.2131 108.814 92.6299 92.4657 109.844 80.9636C127.058 69.4614 147.297 63.3222 168 63.3222C188.703 63.3222 208.942 69.4614 226.156 80.9636C243.37 92.4657 256.787 108.814 264.71 127.942C272.633 147.069 274.705 168.116 270.666 188.422C266.627 208.727 256.658 227.379 242.018 242.018L252 252Z"/>
</mask>
<path d="M252 252C268.614 235.386 279.928 214.219 284.511 191.176C289.095 168.132 286.743 144.246 277.751 122.54C268.76 100.833 253.534 82.2797 233.998 69.2265C214.463 56.1732 191.495 49.2061 168 49.2061C144.505 49.2061 121.537 56.1732 102.002 69.2265C82.4661 82.2797 67.2399 100.833 58.2487 122.54C49.2575 144.246 46.905 168.132 51.4886 191.176C56.0723 214.219 67.3864 235.386 84 252L93.9816 242.018C79.3421 227.379 69.3725 208.727 65.3335 188.422C61.2945 168.116 63.3675 147.069 71.2903 127.942C79.2131 108.814 92.6299 92.4657 109.844 80.9636C127.058 69.4614 147.297 63.3222 168 63.3222C188.703 63.3222 208.942 69.4614 226.156 80.9636C243.37 92.4657 256.787 108.814 264.71 127.942C272.633 147.069 274.705 168.116 270.666 188.422C266.627 208.727 256.658 227.379 242.018 242.018L252 252Z" stroke="#E1E5F7" stroke-width="18" mask="url(#path-1-inside-1_6_862)"/>
<mask id="path-2-inside-2_6_862" fill="white">
<path d="M251.969 83.9692C240.934 72.9422 227.835 64.1967 213.42 58.232C199.005 52.2674 183.557 49.2003 167.956 49.2061C152.356 49.2118 136.91 52.2902 122.499 58.2654C108.089 64.2407 94.9961 72.9958 83.9691 84.0309C72.9421 95.066 64.1966 108.165 58.2319 122.58C52.2673 136.995 49.2003 152.443 49.206 168.044C49.2117 183.644 52.2901 199.09 58.2653 213.501C64.2406 227.911 72.9957 241.004 84.0308 252.031L94.0087 242.046C84.2849 232.329 76.5702 220.792 71.3049 208.094C66.0397 195.396 63.3272 181.785 63.3221 168.038C63.3171 154.292 66.0196 140.679 71.2755 127.977C76.5314 115.275 84.2377 103.733 93.9543 94.0088C103.671 84.285 115.208 76.5703 127.906 71.305C140.604 66.0398 154.215 63.3273 167.961 63.3222C181.708 63.3172 195.321 66.0197 208.023 71.2756C220.725 76.5315 232.267 84.2378 241.991 93.9544L251.969 83.9692Z"/>
</mask>
<path d="M251.969 83.9692C240.934 72.9422 227.835 64.1967 213.42 58.232C199.005 52.2674 183.557 49.2003 167.956 49.2061C152.356 49.2118 136.91 52.2902 122.499 58.2654C108.089 64.2407 94.9961 72.9958 83.9691 84.0309C72.9421 95.066 64.1966 108.165 58.2319 122.58C52.2673 136.995 49.2003 152.443 49.206 168.044C49.2117 183.644 52.2901 199.09 58.2653 213.501C64.2406 227.911 72.9957 241.004 84.0308 252.031L94.0087 242.046C84.2849 232.329 76.5702 220.792 71.3049 208.094C66.0397 195.396 63.3272 181.785 63.3221 168.038C63.3171 154.292 66.0196 140.679 71.2755 127.977C76.5314 115.275 84.2377 103.733 93.9543 94.0088C103.671 84.285 115.208 76.5703 127.906 71.305C140.604 66.0398 154.215 63.3273 167.961 63.3222C181.708 63.3172 195.321 66.0197 208.023 71.2756C220.725 76.5315 232.267 84.2378 241.991 93.9544L251.969 83.9692Z" stroke="#E1E5F7" stroke-width="18" mask="url(#path-2-inside-2_6_862)"/>
<g clip-path="url(#clip0_6_862)">
<path d="M165.187 284.974L165.379 273.94H166.805L166.613 284.974H165.187Z" fill="#F5F5FE"/>
<path d="M160.832 284.788L161.43 273.773L162.855 273.85L162.252 284.865L160.832 284.788Z" fill="#F5F5FE"/>
<path d="M156.497 284.448L157.499 273.458L158.918 273.587L157.917 284.576L156.497 284.448Z" fill="#F5F5FE"/>
<path d="M152.175 283.94L153.588 273.022L155.001 273.208L153.588 284.127L152.175 283.94Z" fill="#F5F5FE"/>
<path d="M147.859 283.279L149.683 272.36L151.089 272.598L149.265 283.484L147.859 283.279Z" fill="#F5F5FE"/>
<path d="M143.601 282.457L145.823 271.647L147.216 271.936L144.994 282.746L143.601 282.457Z" fill="#F5F5FE"/>
<path d="M139.349 281.474L141.976 270.754L143.363 271.095L140.736 281.814L139.349 281.474Z" fill="#F5F5FE"/>
<path d="M135.136 280.331L138.167 269.714L139.535 270.106L136.504 280.722L135.136 280.331Z" fill="#F5F5FE"/>
<path d="M130.968 279.02L134.397 268.532L135.752 268.975L132.323 279.464L130.968 279.02Z" fill="#F5F5FE"/>
<path d="M126.87 277.569L130.723 267.215L132.059 267.71L128.238 278.063L126.87 277.569Z" fill="#F5F5FE"/>
<path d="M122.823 275.963L127.03 265.757L128.347 266.303L124.147 276.509L122.823 275.963Z" fill="#F5F5FE"/>
<path d="M118.829 274.203L123.415 264.165L124.699 264.756L120.113 274.794L118.829 274.203Z" fill="#F5F5FE"/>
<path d="M114.924 272.296L119.876 262.437L121.16 263.079L116.208 272.945L114.924 272.296Z" fill="#F5F5FE"/>
<path d="M111.077 270.247L116.395 260.574L117.641 261.261L112.323 270.934L111.077 270.247Z" fill="#F5F5FE"/>
<path d="M107.32 268.057L112.991 258.59L114.217 259.322L108.54 268.789L107.32 268.057Z" fill="#F5F5FE"/>
<path d="M103.633 265.719L109.657 256.477L110.852 257.254L104.827 266.502L103.633 265.719Z" fill="#F5F5FE"/>
<path d="M100.062 263.253L106.427 254.261L107.589 255.083L101.225 264.075L100.062 263.253Z" fill="#F5F5FE"/>
<path d="M96.549 260.664L103.241 251.884L104.378 252.751L97.6858 261.531L96.549 260.664Z" fill="#F5F5FE"/>
<path d="M93.1577 257.928L100.171 249.405L101.276 250.311L94.2817 258.847L93.1577 257.928Z" fill="#F5F5FE"/>
<path d="M89.8567 255.089L97.1848 246.83L98.2509 247.78L90.9228 256.033L89.8567 255.089Z" fill="#F5F5FE"/>
<path d="M86.6837 252.148L94.3074 244.171L95.3413 245.153L87.7178 253.13L86.6837 252.148Z" fill="#F5F5FE"/>
<path d="M80.6403 245.834L88.8355 238.441L89.7924 239.501L81.5972 246.894L80.6403 245.834Z" fill="#F5F5FE"/>
<path d="M77.8143 242.546L86.2728 235.481L87.1912 236.572L78.7263 243.637L77.8143 242.546Z" fill="#F5F5FE"/>
<path d="M75.0911 239.135L83.8128 232.359L84.6863 233.49L75.9644 240.259L75.0911 239.135Z" fill="#F5F5FE"/>
<path d="M72.5157 235.628L81.4752 229.206L82.3102 230.362L73.3186 236.784L72.5157 235.628Z" fill="#F5F5FE"/>
<path d="M70.0621 232.032L79.2593 225.93L80.0428 227.118L70.8521 233.22L70.0621 232.032Z" fill="#F5F5FE"/>
<path d="M67.75 228.383L77.1656 222.603L77.9106 223.823L68.4887 229.604L67.75 228.383Z" fill="#F5F5FE"/>
<path d="M65.5664 224.575L75.2003 219.173L75.9002 220.413L66.2664 225.821L65.5664 224.575Z" fill="#F5F5FE"/>
<path d="M63.5242 220.721L73.3442 215.686L73.9864 216.97L64.16 222.012L63.5242 220.721Z" fill="#F5F5FE"/>
<path d="M61.6356 216.823L71.6356 212.153L72.2393 213.438L62.2395 218.107L61.6356 216.823Z" fill="#F5F5FE"/>
<path d="M59.8951 212.815L70.0621 208.524L70.6144 209.809L60.4476 214.106L59.8951 212.815Z" fill="#F5F5FE"/>
<path d="M58.3153 208.768L68.6428 204.857L69.1438 206.186L58.8227 210.098L58.3153 208.768Z" fill="#F5F5FE"/>
<path d="M56.851 204.619L67.3198 201.1L67.7693 202.448L57.3069 205.975L56.851 204.619Z" fill="#F5F5FE"/>
<path d="M55.5665 200.477L66.1573 197.355L66.5556 198.717L55.9712 201.845L55.5665 200.477Z" fill="#F5F5FE"/>
<path d="M54.4617 196.27L65.1552 193.547L65.5085 194.927L54.8149 197.651L54.4617 196.27Z" fill="#F5F5FE"/>
<path d="M53.4663 192.018L64.2627 189.693L64.5581 191.087L53.7682 193.405L53.4663 192.018Z" fill="#F5F5FE"/>
<path d="M52.657 187.747L63.5305 185.82L63.7809 187.22L52.9076 189.147L52.657 187.747Z" fill="#F5F5FE"/>
<path d="M52.0146 183.424L62.933 181.908L63.1257 183.321L52.2074 184.837L52.0146 183.424Z" fill="#F5F5FE"/>
<path d="M51.5201 179.115L62.5092 178.01L62.6505 179.429L51.6614 180.527L51.5201 179.115Z" fill="#F5F5FE"/>
<path d="M51.1926 174.779L62.2139 174.086L62.3037 175.505L51.2826 176.199L51.1926 174.779Z" fill="#F5F5FE"/>
<path d="M51.0321 170.431L62.0598 170.142L62.0982 171.561L51.0707 171.857L51.0321 170.431Z" fill="#F5F5FE"/>
<path d="M51.0193 166.025L62.0598 166.205V167.631L51.0257 167.451L51.0193 166.025Z" fill="#F5F5FE"/>
<path d="M51.1671 161.735L62.1946 162.248L62.1303 163.674L51.1028 163.16L51.1671 161.735Z" fill="#F5F5FE"/>
<path d="M51.4818 157.386L62.4771 158.305L62.3616 159.731L51.3596 158.806L51.4818 157.386Z" fill="#F5F5FE"/>
<path d="M51.9506 153.051L62.9074 154.387L62.734 155.8L51.7772 154.471L51.9506 153.051Z" fill="#F5F5FE"/>
<path d="M52.5801 148.741L63.4984 150.482L63.2736 151.889L52.3552 150.148L52.5801 148.741Z" fill="#F5F5FE"/>
<path d="M53.3764 144.457L64.2047 146.603L63.9286 148.003L53.1001 145.858L53.3764 144.457Z" fill="#F5F5FE"/>
<path d="M54.3269 140.218L65.0655 142.788L64.7379 144.175L53.9994 141.606L54.3269 140.218Z" fill="#F5F5FE"/>
<path d="M55.4445 135.999L66.0739 138.947L65.6949 140.321L55.0591 137.373L55.4445 135.999Z" fill="#F5F5FE"/>
<path d="M56.7096 131.843L67.2234 135.183L66.793 136.538L56.2793 133.198L56.7096 131.843Z" fill="#F5F5FE"/>
<path d="M58.1355 127.7L68.5208 131.439L68.0391 132.781L57.6538 129.043L58.1355 127.7Z" fill="#F5F5FE"/>
<path d="M59.7089 123.635L69.953 127.765L69.4199 129.088L59.1824 124.958L59.7089 123.635Z" fill="#F5F5FE"/>
<path d="M61.4366 119.653L71.5136 124.149L70.9291 125.433L60.8585 120.937L61.4366 119.653Z" fill="#F5F5FE"/>
<path d="M63.3056 115.728L73.2091 120.603L72.5669 121.888L62.6633 117.013L63.3056 115.728Z" fill="#F5F5FE"/>
<path d="M65.335 111.862L75.0461 117.109L74.3717 118.394L64.6606 113.146L65.335 111.862Z" fill="#F5F5FE"/>
<path d="M67.4931 108.085L77.005 113.686L76.2791 114.913L66.7737 109.312L67.4931 108.085Z" fill="#F5F5FE"/>
<path d="M69.8052 104.379L79.0988 110.333L78.328 111.534L69.0345 105.581L69.8052 104.379Z" fill="#F5F5FE"/>
<path d="M72.2393 100.77L81.308 107.064L80.4988 108.233L71.4301 101.939L72.2393 100.77Z" fill="#F5F5FE"/>
<path d="M74.8149 97.263L83.6395 103.885L82.7854 105.022L73.9608 98.3999L74.8149 97.263Z" fill="#F5F5FE"/>
<path d="M77.5059 93.8462L86.0801 100.796L85.1875 101.907L76.6133 94.9573L77.5059 93.8462Z" fill="#F5F5FE"/>
<path d="M80.3383 90.5256L88.6491 97.7897L87.7114 98.8623L79.4006 91.5789L80.3383 90.5256Z" fill="#F5F5FE"/>
<path d="M83.2735 87.3271L91.3081 94.8931L90.3319 95.9271L82.2972 88.3675L83.2735 87.3271Z" fill="#F5F5FE"/>
<path d="M86.3369 84.2313L94.089 92.0799L93.0744 93.0818L85.3223 85.2268L86.3369 84.2313Z" fill="#F5F5FE"/>
<path d="M89.5033 81.2512L96.9599 89.3887L95.9066 90.3521L88.45 82.2146L89.5033 81.2512Z" fill="#F5F5FE"/>
<path d="M92.7916 78.3866L99.94 86.794L98.8546 87.7188L91.7126 79.3115L92.7916 78.3866Z" fill="#F5F5FE"/>
<path d="M96.2084 75.644L103.036 84.3084L101.918 85.1883L95.0845 76.524L96.2084 75.644Z" fill="#F5F5FE"/>
<path d="M99.6638 73.03L106.17 81.9512L105.02 82.7862L98.5143 73.8714L99.6638 73.03Z" fill="#F5F5FE"/>
<path d="M103.273 70.5573L109.445 79.7033L108.264 80.4997L102.098 71.3537L103.273 70.5573Z" fill="#F5F5FE"/>
<path d="M106.915 68.2065L112.74 77.5837L111.533 78.3352L105.707 68.958L106.915 68.2065Z" fill="#F5F5FE"/>
<path d="M110.659 66.0036L116.138 75.5863L114.898 76.2927L109.426 66.71L110.659 66.0036Z" fill="#F5F5FE"/>
<path d="M114.5 63.9611L119.638 73.7429L118.354 74.3852L113.215 64.6034L114.5 63.9611Z" fill="#F5F5FE"/>
<path d="M118.418 62.0343L123.158 72.0024L121.873 72.6447L117.127 62.6765L118.418 62.0343Z" fill="#F5F5FE"/>
<path d="M122.393 60.2359L126.761 70.3774L125.476 70.9362L121.115 60.8011L122.393 60.2359Z" fill="#F5F5FE"/>
<path d="M126.427 58.6174L130.415 68.8938L129.086 69.4076L125.104 59.1312L126.427 58.6174Z" fill="#F5F5FE"/>
<path d="M130.537 57.1401L134.134 67.5771L132.785 68.0395L129.188 57.609L130.537 57.1401Z" fill="#F5F5FE"/>
<path d="M134.686 55.8234L137.897 66.3889L136.536 66.8L133.324 56.2409L134.686 55.8234Z" fill="#F5F5FE"/>
<path d="M138.887 54.6674L141.693 65.342L140.312 65.7016L137.506 55.027L138.887 54.6674Z" fill="#F5F5FE"/>
<path d="M143.093 53.6847L145.502 64.4557L144.108 64.7704L141.706 53.993L143.093 53.6847Z" fill="#F5F5FE"/>
<path d="M147.39 52.8241L149.394 63.6785L147.987 63.9354L145.99 53.081L147.39 52.8241Z" fill="#F5F5FE"/>
<path d="M151.693 52.1432L153.286 63.0619L151.873 63.2675L150.286 52.3488L151.693 52.1432Z" fill="#F5F5FE"/>
<path d="M156.022 51.623L157.204 62.593L155.784 62.7472L154.602 51.7772L156.022 51.623Z" fill="#F5F5FE"/>
<path d="M160.364 51.2569L161.147 62.2655L159.721 62.3683L158.944 51.3597L160.364 51.2569Z" fill="#F5F5FE"/>
<path d="M164.712 51.0578L165.078 62.092L163.658 62.1371L163.286 51.1092L164.712 51.0578Z" fill="#F5F5FE"/>
<path d="M169.169 51.0257L168.989 62.0664H167.563L167.743 51.0257H169.169Z" fill="#F5F5FE"/>
<path d="M173.408 51.1156L172.977 62.1435L171.552 62.092L171.988 51.0578L173.408 51.1156Z" fill="#F5F5FE"/>
<path d="M177.775 51.411L176.934 62.4196L175.514 62.3105L176.349 51.3083L177.775 51.411Z" fill="#F5F5FE"/>
<path d="M182.078 51.8542L180.832 62.8178L179.413 62.6573L180.665 51.6937L182.078 51.8542Z" fill="#F5F5FE"/>
<path d="M186.394 52.4515L184.737 63.3702L183.324 63.1582L184.981 52.2396L186.394 52.4515Z" fill="#F5F5FE"/>
<path d="M190.672 53.2094L188.616 64.0574L187.216 63.7877L189.271 52.9396L190.672 53.2094Z" fill="#F5F5FE"/>
<path d="M194.949 54.1343L192.483 64.8924L191.089 64.5776L193.562 53.8131L194.949 54.1343Z" fill="#F5F5FE"/>
<path d="M199.162 55.2069L196.291 65.8686L194.917 65.5026L197.788 54.8408L199.162 55.2069Z" fill="#F5F5FE"/>
<path d="M203.331 56.4465L200.068 66.9926L198.706 66.5688L201.969 56.029L203.331 56.4465Z" fill="#F5F5FE"/>
<path d="M207.46 57.8402L203.806 68.2515L202.457 67.7826L206.118 57.3713L207.46 57.8402Z" fill="#F5F5FE"/>
<path d="M211.539 59.3881L207.492 69.6645L206.169 69.1379L210.216 58.8615L211.539 59.3881Z" fill="#F5F5FE"/>
<path d="M215.566 61.0966L211.134 71.1995L209.849 70.6279L214.281 60.5185L215.566 61.0966Z" fill="#F5F5FE"/>
<path d="M219.522 62.9399L214.718 72.8694L213.433 72.2272L218.231 62.2912L219.522 62.9399Z" fill="#F5F5FE"/>
<path d="M223.375 64.9245L218.199 74.6743L216.946 74.032L222.117 64.2822L223.375 64.9245Z" fill="#F5F5FE"/>
<path d="M227.158 67.0568L221.629 76.6074L220.396 75.8945L225.925 66.3439L227.158 67.0568Z" fill="#F5F5FE"/>
<path d="M230.89 69.3369L225 78.6756L223.793 77.9177L229.682 68.579L230.89 69.3369Z" fill="#F5F5FE"/>
<path d="M234.519 71.7519L228.289 80.8657L227.113 80.0629L233.337 70.9426L234.519 71.7519Z" fill="#F5F5FE"/>
<path d="M238.045 74.2888L231.487 83.1716L230.338 82.3237L236.902 73.4475L238.045 74.2888Z" fill="#F5F5FE"/>
<path d="M241.474 76.9607L234.596 85.5865L233.478 84.7002L240.363 76.0744L241.474 76.9607Z" fill="#F5F5FE"/>
<path d="M244.82 79.7739L237.621 88.1235L236.542 87.1922L243.741 78.8426L244.82 79.7739Z" fill="#F5F5FE"/>
<path d="M248.038 82.6834L240.537 90.7761L239.49 89.8062L246.998 81.7136L248.038 82.6834Z" fill="#F5F5FE"/>
<path d="M251.166 85.7278L243.363 93.5057L242.361 92.5037L250.158 84.6937L251.166 85.7278Z" fill="#F5F5FE"/>
<path d="M254.159 88.8621L246.079 96.3831L245.109 95.3362L253.189 87.8216L254.159 88.8621Z" fill="#F5F5FE"/>
<path d="M257.049 92.1312L248.7 99.344L247.775 98.265L256.124 91.0523L257.049 92.1312Z" fill="#F5F5FE"/>
<path d="M259.804 95.4903L251.192 102.388L250.299 101.271L258.912 94.3792L259.804 95.4903Z" fill="#F5F5FE"/>
<path d="M262.451 98.9651L253.587 105.536L252.74 104.392L261.603 97.8218L262.451 98.9651Z" fill="#F5F5FE"/>
<path d="M264.962 102.498L255.855 108.734L255.052 107.559L264.152 101.322L264.962 102.498Z" fill="#F5F5FE"/>
<path d="M267.331 106.178L258.006 112.074L257.242 110.873L266.567 104.97L267.331 106.178Z" fill="#F5F5FE"/>
<path d="M269.566 109.903L260.023 115.452L259.303 114.219L268.847 108.67L269.566 109.903Z" fill="#F5F5FE"/>
<path d="M271.66 113.725L261.917 118.908L261.243 117.623L270.986 112.434L271.66 113.725Z" fill="#F5F5FE"/>
<path d="M273.613 117.623L263.684 122.44L263.041 121.156L272.971 116.332L273.613 117.623Z" fill="#F5F5FE"/>
<path d="M275.398 121.586L265.302 126.031L264.73 124.746L274.827 120.301L275.398 121.586Z" fill="#F5F5FE"/>
<path d="M277.075 125.619L266.799 129.685L266.278 128.362L276.554 124.296L277.075 125.619Z" fill="#F5F5FE"/>
<path d="M278.571 129.698L268.166 133.378L267.691 132.042L278.102 128.362L278.571 129.698Z" fill="#F5F5FE"/>
<path d="M279.894 133.841L269.355 137.123L268.931 135.761L279.47 132.479L279.894 133.841Z" fill="#F5F5FE"/>
<path d="M281.114 138.048L270.459 140.931L270.087 139.557L280.742 136.667L281.114 138.048Z" fill="#F5F5FE"/>
<path d="M282.148 142.274L271.397 144.753L271.076 143.366L281.827 140.88L282.148 142.274Z" fill="#F5F5FE"/>
<path d="M283.022 146.538L272.187 148.619L271.917 147.226L282.752 145.145L283.022 146.538Z" fill="#F5F5FE"/>
<path d="M283.748 150.848L272.829 152.518L272.611 151.111L283.529 149.435L283.748 150.848Z" fill="#F5F5FE"/>
<path d="M284.294 155.164L273.33 156.449L273.163 155.029L284.127 153.745L284.294 155.164Z" fill="#F5F5FE"/>
<path d="M284.685 159.499L273.683 160.36L273.568 158.941L284.576 158.08L284.685 159.499Z" fill="#F5F5FE"/>
<path d="M284.923 163.835L273.889 164.284L273.831 162.865L284.859 162.409L284.923 163.835Z" fill="#F5F5FE"/>
<path d="M285.032 168.093L273.992 168.273V166.847L285.026 166.667L285.032 168.093Z" fill="#F5F5FE"/>
<path d="M284.904 172.538L273.87 172.178L273.921 170.759L284.949 171.112L284.904 172.538Z" fill="#F5F5FE"/>
<path d="M284.66 176.873L273.645 176.115L273.748 174.696L284.756 175.454L284.66 176.873Z" fill="#F5F5FE"/>
<path d="M284.255 181.221L273.279 180.052L273.427 178.639L284.403 179.808L284.255 181.221Z" fill="#F5F5FE"/>
<path d="M283.683 185.537L272.765 183.97L272.97 182.557L283.889 184.131L283.683 185.537Z" fill="#F5F5FE"/>
<path d="M282.958 189.847L272.097 187.869L272.354 186.462L283.215 188.447L282.958 189.847Z" fill="#F5F5FE"/>
<path d="M282.065 194.099L271.294 191.71L271.603 190.322L282.373 192.705L282.065 194.099Z" fill="#F5F5FE"/>
<path d="M281.024 198.325L270.344 195.538L270.703 194.157L281.384 196.944L281.024 198.325Z" fill="#F5F5FE"/>
<path d="M279.817 202.506L269.252 199.295L269.663 197.927L280.228 201.138L279.817 202.506Z" fill="#F5F5FE"/>
<path d="M278.455 206.655L268.019 203.071L268.475 201.723L278.918 205.307L278.455 206.655Z" fill="#F5F5FE"/>
<path d="M276.94 210.74L266.663 206.771L267.177 205.441L277.453 209.411L276.94 210.74Z" fill="#F5F5FE"/>
<path d="M275.276 214.761L265.122 210.4L265.687 209.115L275.828 213.463L275.276 214.761Z" fill="#F5F5FE"/>
<path d="M273.472 218.749L263.497 214.016L264.14 212.731L274.114 217.458L273.472 218.749Z" fill="#F5F5FE"/>
<path d="M271.487 222.603L261.699 217.503L262.341 216.219L272.129 221.318L271.487 222.603Z" fill="#F5F5FE"/>
<path d="M269.38 226.457L259.791 220.997L260.491 219.758L270.087 225.223L269.38 226.457Z" fill="#F5F5FE"/>
<path d="M267.139 230.156L257.755 224.376L258.507 223.162L267.884 228.942L267.139 230.156Z" fill="#F5F5FE"/>
<path d="M264.756 233.804L255.591 227.645L256.387 226.463L265.553 232.616L264.756 233.804Z" fill="#F5F5FE"/>
<path d="M262.232 237.375L253.311 230.882L254.146 229.726L263.073 236.219L262.232 237.375Z" fill="#F5F5FE"/>
<path d="M259.592 240.805L250.915 233.991L251.795 232.867L260.472 239.681L259.592 240.805Z" fill="#F5F5FE"/>
<path d="M256.824 244.151L248.404 237.022L249.323 235.93L257.749 243.066L256.824 244.151Z" fill="#F5F5FE"/>
<path d="M253.921 247.414L245.771 239.944L246.734 238.891L254.885 246.335L253.921 247.414Z" fill="#F5F5FE"/>
<path d="M247.781 253.58L240.209 245.551L241.243 244.575L248.822 252.604L247.781 253.58Z" fill="#F5F5FE"/>
<path d="M244.57 256.496L237.3 248.191L238.366 247.253L245.642 255.558L244.57 256.496Z" fill="#F5F5FE"/>
<path d="M241.204 259.27L234.242 250.715L235.347 249.816L242.309 258.378L241.204 259.27Z" fill="#F5F5FE"/>
<path d="M237.749 261.949L231.083 253.13L232.219 252.276L238.86 261.095L237.749 261.949Z" fill="#F5F5FE"/>
<path d="M234.21 264.479L227.903 255.423L229.072 254.607L235.379 263.664L234.21 264.479Z" fill="#F5F5FE"/>
<path d="M230.569 266.881L224.609 257.594L225.803 256.823L231.77 266.111L230.569 266.881Z" fill="#F5F5FE"/>
<path d="M226.869 269.136L221.249 259.637L222.47 258.911L228.096 268.41L226.869 269.136Z" fill="#F5F5FE"/>
<path d="M223.067 271.262L217.807 261.557L219.092 260.876L224.352 270.581L223.067 271.262Z" fill="#F5F5FE"/>
<path d="M219.181 273.246L214.287 263.349L215.572 262.707L220.466 272.598L219.181 273.246Z" fill="#F5F5FE"/>
<path d="M215.238 275.077L210.742 265.006L212.027 264.422L216.523 274.492L215.238 275.077Z" fill="#F5F5FE"/>
<path d="M211.211 276.766L207.069 266.535L208.392 266.001L212.534 276.233L211.211 276.766Z" fill="#F5F5FE"/>
<path d="M207.133 278.295L203.376 267.916L204.718 267.434L208.469 277.813L207.133 278.295Z" fill="#F5F5FE"/>
<path d="M203.003 279.675L199.644 269.162L200.999 268.731L204.358 279.239L203.003 279.675Z" fill="#F5F5FE"/>
<path d="M198.809 280.902L195.848 270.273L197.216 269.887L200.184 280.517L198.809 280.902Z" fill="#F5F5FE"/>
<path d="M194.602 281.969L192.033 271.23L193.421 270.902L195.99 281.635L194.602 281.969Z" fill="#F5F5FE"/>
<path d="M190.325 282.881L188.167 272.052L189.567 271.776L191.725 282.598L190.325 282.881Z" fill="#F5F5FE"/>
<path d="M186.041 283.619L184.281 272.7L185.688 272.476L187.448 283.394L186.041 283.619Z" fill="#F5F5FE"/>
<path d="M181.719 284.21L180.37 273.253L181.783 273.079L183.132 284.03L181.719 284.21Z" fill="#F5F5FE"/>
<path d="M177.39 284.634L176.446 273.638L177.865 273.516L178.809 284.512L177.39 284.634Z" fill="#F5F5FE"/>
<path d="M173.042 284.904L172.502 273.882L173.928 273.812L174.461 284.839L173.042 284.904Z" fill="#F5F5FE"/>
</g>
<defs>
<clipPath id="clip0_6_862">
<rect width="234" height="234" fill="white" transform="translate(51 51)"/>
</clipPath>
</defs>
</svg>
