<?xml version="1.0" encoding="UTF-8" standalone="no"?>
<!-- Created with Inkscape (http://www.inkscape.org/) -->

<svg version="1.1" id="svg2" xml:space="preserve" width="1267.3733" height="450.84" viewBox="0 0 1267.3733 450.84" sodipodi:docname="Connecting-MHA-RGB.eps" xmlns:inkscape="http://www.inkscape.org/namespaces/inkscape" xmlns:sodipodi="http://sodipodi.sourceforge.net/DTD/sodipodi-0.dtd" xmlns="http://www.w3.org/2000/svg" xmlns:svg="http://www.w3.org/2000/svg">
    <defs id="defs6" />
    <sodipodi:namedview id="namedview4" pagecolor="#ffffff" bordercolor="#666666" borderopacity="1.0" inkscape:pageshadow="2" inkscape:pageopacity="0.0" inkscape:pagecheckerboard="0" />
    <g id="g8" inkscape:groupmode="layer" inkscape:label="ink_ext_XXXXXX" transform="matrix(1.3333333,0,0,-1.3333333,0,450.84)">
        <g id="g10" transform="scale(0.1)">
            <path d="M 2787.91,1426.34 C 2416.75,1782.11 1929.68,1978 1415.62,1978 901.57,1978 414.457,1782.11 43.5313,1426.34 c -56.4024,-54.19 -58.2188,-143.77 -4.1485,-200.18 54.0625,-56.53 143.6442,-58.04 200.1832,-4.14 313.844,308.73 735.442,472.85 1176.054,472.85 440.62,0 854.25,-167.97 1175.87,-472.91 27.87,-26.1 62.82,-39.37 98.21,-39.37 37.19,0 74.37,14.51 102.15,43.55 54.01,56.43 52.24,149.77 -3.94,200.2 z M 1415.62,1274.16 c -310.77,0 -610.05,-113.25 -842.745,-318.648 -58.395,-55.614 -64.145,-144.973 -12.387,-203.813 52.203,-58.39 141.567,-64.14 199.961,-12.379 180.934,159.7 413.631,247.731 655.171,247.731 241.55,0 474.69,-87.942 655.18,-247.731 26.99,-23.89 60.61,-35.39 93.79,-35.39 39.12,0 78.12,16.172 106.17,47.82 51.76,58.789 46.45,148.148 -12.39,199.91 -232.69,205.27 -531.75,322.5 -842.75,322.5 z m -3.98,-707.82 c -156.38,0 -283.13,-126.789 -283.13,-283.168 C 1128.51,126.789 1255.3,0 1411.64,0 c 156.34,0 283.13,126.789 283.13,283.172 0,156.379 -122.98,283.168 -283.13,283.168" style="fill:#548dd1;fill-opacity:1;fill-rule:nonzero;stroke:none" id="path12" />
            <path d="m 0,2673.23 v 3.06 c 0,234.51 182.398,432.23 444.488,432.23 170.133,0 283.547,-73.58 354.055,-185.47 L 600.824,2775.91 c -39.851,55.19 -84.297,87.38 -154.804,87.38 -93.493,0 -162.465,-82.77 -162.465,-183.93 v -3.07 c 0,-107.28 67.433,-188.52 165.527,-188.52 68.977,0 113.422,32.19 159.406,85.83 L 803.141,2432.59 C 726.504,2319.17 616.152,2242.54 433.754,2242.54 183.93,2242.54 0,2438.73 0,2673.23" style="fill:#3b3b3c;fill-opacity:1;fill-rule:nonzero;stroke:none" id="path14" />
            <path d="m 1424.01,2673.23 v 3.06 c 0,101.17 -73.57,187 -176.26,187 -105.76,0 -173.2,-84.3 -173.2,-183.93 v -3.07 c 0,-101.16 73.57,-186.99 176.27,-186.99 105.75,0 173.19,84.3 173.19,183.93 z m -633.01,0 v 3.06 c 0,236.04 193.121,433.76 459.82,433.76 265.15,0 456.74,-194.66 456.74,-430.69 v -3.07 c 0,-236.03 -193.12,-433.75 -459.81,-433.75 -265.156,0 -456.75,194.66 -456.75,430.69" style="fill:#3b3b3c;fill-opacity:1;fill-rule:nonzero;stroke:none" id="path16" />
            <path d="m 1779.59,3091.66 h 291.21 v -116.48 c 53.64,68.96 130.28,134.87 248.3,134.87 176.26,0 282.01,-116.48 282.01,-305.01 V 2262.46 H 2309.9 v 449.08 c 0,90.43 -47.51,139.48 -116.49,139.48 -70.5,0 -122.61,-49.05 -122.61,-139.48 v -449.08 h -291.21 v 829.2" style="fill:#3b3b3c;fill-opacity:1;fill-rule:nonzero;stroke:none" id="path18" />
            <path d="m 2711.45,3091.66 h 291.21 v -116.48 c 53.65,68.96 130.28,134.87 248.3,134.87 176.26,0 282.02,-116.48 282.02,-305.01 v -542.58 h -291.22 v 449.08 c 0,90.43 -47.51,139.48 -116.48,139.48 -70.5,0 -122.62,-49.05 -122.62,-139.48 v -449.08 h -291.21 v 829.2" style="fill:#3b3b3c;fill-opacity:1;fill-rule:nonzero;stroke:none" id="path20" />
            <path d="m 4166.26,2745.27 c -10.73,91.95 -64.37,150.2 -144.07,150.2 -76.64,0 -128.75,-59.78 -144.08,-150.2 z m -564.03,-72.04 v 3.06 c 0,242.17 173.2,433.76 418.43,433.76 286.61,0 418.43,-209.98 418.43,-453.68 0,-18.39 0,-39.85 -1.53,-59.78 h -554.84 c 22.99,-90.43 88.89,-136.41 179.32,-136.41 68.97,0 124.15,26.06 183.92,84.3 l 160.94,-133.35 c -79.7,-101.15 -194.66,-168.59 -360.19,-168.59 -260.56,0 -444.48,173.19 -444.48,430.69" style="fill:#3b3b3c;fill-opacity:1;fill-rule:nonzero;stroke:none" id="path22" />
            <path d="m 4471.11,2673.23 v 3.06 c 0,234.51 182.39,432.23 444.49,432.23 170.13,0 283.54,-73.58 354.05,-185.47 l -197.72,-147.14 c -39.85,55.19 -84.3,87.38 -154.8,87.38 -93.49,0 -162.47,-82.77 -162.47,-183.93 v -3.07 c 0,-107.28 67.44,-188.52 165.53,-188.52 68.98,0 113.42,32.19 159.41,85.83 l 194.65,-141.01 c -76.64,-113.42 -186.99,-190.05 -369.39,-190.05 -249.82,0 -433.75,196.19 -433.75,430.69" style="fill:#3b3b3c;fill-opacity:1;fill-rule:nonzero;stroke:none" id="path24" />
            <path d="m 5380.9,2519.96 v 337.18 h -98.09 v 234.52 h 98.09 v 209.98 h 291.21 v -209.98 h 193.13 v -234.52 h -193.13 v -280.48 c 0,-58.23 26.06,-82.76 79.7,-82.76 38.32,0 75.11,10.73 110.36,27.59 v -228.37 c -52.11,-29.13 -121.08,-47.52 -202.32,-47.52 -174.72,0 -278.95,76.64 -278.95,274.36" style="fill:#3b3b3c;fill-opacity:1;fill-rule:nonzero;stroke:none" id="path26" />
            <path d="m 5956.12,3091.66 h 291.22 v -829.2 h -291.22 z m -6.13,289.67 h 303.48 v -214.58 h -303.48 v 214.58" style="fill:#3b3b3c;fill-opacity:1;fill-rule:nonzero;stroke:none" id="path28" />
            <path d="m 6362.27,3091.66 h 291.21 v -116.48 c 53.65,68.96 130.28,134.87 248.31,134.87 176.25,0 282.01,-116.48 282.01,-305.01 v -542.58 h -291.22 v 449.08 c 0,90.43 -47.5,139.48 -116.48,139.48 -70.5,0 -122.62,-49.05 -122.62,-139.48 v -449.08 h -291.21 v 829.2" style="fill:#3b3b3c;fill-opacity:1;fill-rule:nonzero;stroke:none" id="path30" />
            <path d="m 7878.25,2720.74 v 3.06 c 0,91.97 -70.51,159.41 -168.61,159.41 -99.62,0 -170.12,-68.97 -170.12,-160.94 v -3.06 c 0,-91.97 70.5,-159.41 170.12,-159.41 98.1,0 168.61,68.97 168.61,160.94 z m -600.82,-611.54 93.49,193.11 c 88.9,-49.05 177.8,-78.16 289.68,-78.16 145.61,0 217.65,72.03 217.65,203.84 v 32.19 c -58.25,-67.44 -134.88,-124.16 -255.96,-124.16 -203.85,0 -367.85,147.16 -367.85,384.72 v 3.06 c 0,239.11 167.06,386.25 358.65,386.25 124.15,0 197.72,-50.58 260.56,-116.48 v 98.09 h 291.21 v -629.95 c 0,-151.73 -33.72,-257.5 -107.29,-331.06 -75.1,-75.11 -191.58,-116.48 -364.78,-116.48 -160.93,0 -295.81,33.72 -415.36,95.03" style="fill:#3b3b3c;fill-opacity:1;fill-rule:nonzero;stroke:none" id="path32" />
            <path d="m 3015.22,1978 h 579.28 l 471.9,-765.77 471.89,765.77 h 579.28 V 0 H 4572.2 V 1135.93 L 4066.4,361.691 h -11.31 L 3552.11,1130.28 V 0 h -536.89 v 1978" style="fill:#3b3b3c;fill-opacity:1;fill-rule:nonzero;stroke:none" id="path34" />
            <path d="m 5310.34,1978 h 548.2 v -740.34 h 703.6 V 1978 h 548.19 V 0 h -548.19 v 751.648 h -703.6 V 0 h -548.2 v 1978" style="fill:#3b3b3c;fill-opacity:1;fill-rule:nonzero;stroke:none" id="path36" />
            <path d="M 8615.19,779.891 8394.79,1342.22 8171.55,779.891 Z M 8134.82,1992.12 h 528.41 L 9505.3,0 H 8917.55 L 8773.44,353.219 H 8010.49 L 7869.2,0 h -576.44 l 842.06,1992.12" style="fill:#3b3b3c;fill-opacity:1;fill-rule:nonzero;stroke:none" id="path38" />
        </g>
    </g>
</svg>