<svg width="80" height="80" viewBox="0 0 80 80" fill="none" xmlns="http://www.w3.org/2000/svg">
<path d="M41.5937 65.5203C42.9832 65.5203 44.1097 64.3938 44.1097 63.0043C44.1097 61.6147 42.9832 60.4883 41.5937 60.4883C40.2041 60.4883 39.0776 61.6147 39.0776 63.0043C39.0776 64.3938 40.2041 65.5203 41.5937 65.5203Z" stroke="#E1E5F7" stroke-width="4" stroke-linecap="round" stroke-linejoin="round"/>
<path d="M28.1335 56.1605C29.7768 52.9345 32.5458 50.3778 35.923 49.0078" stroke="#E1E5F7" stroke-width="4" stroke-linecap="round" stroke-linejoin="round"/>
<path d="M64.238 47.086C60.8217 42.235 55.8863 38.531 50.1233 36.666M18.9495 47.086C20.9784 44.205 23.5433 41.7284 26.4992 39.8014L18.9495 47.086Z" stroke="#E1E5F7" stroke-width="4" stroke-linecap="round" stroke-linejoin="round"/>
<path d="M73.245 38.1266C65.874 28.7617 54.436 22.748 41.5937 22.748C40.0093 22.748 38.4463 22.8395 36.91 23.0176M10 38.0536C12.3733 35.0526 14.7925 32.8833 17.9147 30.6627" stroke="#E1E5F7" stroke-width="4" stroke-linecap="round" stroke-linejoin="round"/>
<path d="M14.7124 13.4609L70.1274 71.9546" stroke="#E1E5F7" stroke-width="4" stroke-linecap="round"/>
</svg>
