<svg width="24" height="15" viewBox="0 0 24 15" fill="none" xmlns="http://www.w3.org/2000/svg">
<g clip-path="url(#clip0_774_969)">
<path d="M0 3.5869C1.01877 3.25454 2.11609 3.24981 3.13768 3.57337C3.66027 3.73214 4.13445 3.94644 4.56164 4.10592C5.31633 4.40949 6.12912 4.54131 6.94106 4.49182C7.53662 4.47714 8.12774 4.38524 8.69964 4.21842C9.50204 3.97563 10.1827 3.45233 10.978 3.02443C11.7721 2.58963 12.6472 2.32304 13.5489 2.24126C14.9786 2.12734 16.4815 2.34663 17.7311 3.07926C18.8147 3.71505 19.5623 4.657 20.6815 5.16748C21.1274 5.37046 21.5859 5.54454 22.0542 5.68865C21.5596 5.85125 21.0432 5.93767 20.5227 5.94496C19.9776 5.94986 19.4351 5.86913 18.9151 5.70574C17.9895 5.42095 17.1928 4.96813 16.3014 4.84282C15.8061 4.77357 15.3045 4.76091 14.8063 4.80509C14.1313 4.8535 13.4635 4.97383 12.8505 5.2515C11.9826 5.65448 11.2037 6.27746 10.2738 6.62277C8.45971 7.32905 6.01051 7.18024 4.32811 6.19059C3.67095 5.81396 3.0672 5.2458 2.52182 4.81933C1.77354 4.21984 0.936251 3.87596 0.00285069 3.58476L0 3.5869Z" fill="#2E3192"/>
<path d="M1.94934 8.32369C2.96804 7.9911 4.06535 7.98612 5.08703 8.30945C5.6089 8.46822 6.08379 8.68252 6.51098 8.842C7.26531 9.14595 8.07796 9.27778 8.88969 9.22789C9.48542 9.21315 10.0767 9.1215 10.649 8.95521C11.4514 8.71171 12.132 8.18841 12.9273 7.76051C13.7216 7.32602 14.5967 7.05944 15.4983 6.97734C16.9279 6.86414 18.4309 7.08271 19.6797 7.81534C20.764 8.45113 21.5116 9.39307 22.6308 9.90356C23.0766 10.107 23.5351 10.281 24.0035 10.4247C23.5088 10.5877 22.9921 10.6741 22.4713 10.681C21.9265 10.6862 21.3842 10.6055 20.8644 10.4418C19.9389 10.157 19.1422 9.70492 18.25 9.57961C17.7548 9.50958 17.2531 9.49692 16.7549 9.54188C16.0799 9.58958 15.4114 9.7099 14.7991 9.98828C13.9312 10.3905 13.1523 11.0135 12.2225 11.3588C10.4076 12.0651 7.95842 11.917 6.27674 10.9267C5.61887 10.55 5.01511 9.98188 4.47045 9.55612C3.72216 8.95663 2.88488 8.61275 1.95148 8.32155L1.94934 8.32369Z" fill="#2E3192"/>
<path d="M2.5332 1.10807C2.5332 1.10807 4.80298 2.66588 6.54091 2.56335C8.27884 2.46083 10.696 0.583349 12.9003 0.943608C12.9003 0.943608 11.0491 -0.202675 8.66118 0.0315653C6.27321 0.265805 5.10771 2.01015 2.5332 1.10807Z" fill="#2E3192"/>
<path d="M10.7672 12.9076C10.7672 12.9076 13.037 14.4654 14.7749 14.3629C16.5129 14.2604 18.93 12.3829 21.1343 12.7424C21.1343 12.7424 19.2832 11.5962 16.8952 11.8304C14.5072 12.0646 13.3417 13.809 10.7672 12.9076Z" fill="#2E3192"/>
</g>
<defs>
<clipPath id="clip0_774_969">
<rect width="24" height="14.367" fill="white"/>
</clipPath>
</defs>
</svg>
