<svg width="24" height="15" viewBox="0 0 24 15" fill="none" xmlns="http://www.w3.org/2000/svg">
<g clip-path="url(#clip0_774_974)">
<path d="M16.4433 0.309052C15.2865 0.0602528 14.1201 -0.102385 12.902 0.074252C11.5277 0.280382 10.235 0.855075 9.16132 1.73722C7.63883 2.99302 6.80514 4.05009 6.5 5.99994C8.19421 5.40541 10.5 5.49994 11.6213 6.48273C11.5352 6.46872 11.4425 6.45472 11.3445 6.44287C8.93191 5.9345 6.33837 7.32714 4.54293 8.83501C3.6126 9.62981 2.77248 10.5245 2.0377 11.5029C1.65965 11.9972 1.30422 12.5067 0.960642 13.0269C0.795853 13.2789 0.637532 13.532 0.482436 13.7905C0.393041 13.9413 0.143162 14.58 -0.00439453 14.636L2.46205 13.7819C2.46205 13.7819 3.80946 11.1765 5.97541 9.09243C5.81385 14.0243 13.0764 14.7125 18.2538 11.462C23.6133 8.09508 23.9924 0.980055 23.9924 0.980055C23.9773 1.25686 21.3299 1.19547 21.0671 1.18362C19.4881 1.1233 17.9759 0.639708 16.4433 0.309052Z" fill="#2E9145"/>
</g>
<defs>
<clipPath id="clip0_774_974">
<rect width="24" height="14.6361" fill="white"/>
</clipPath>
</defs>
</svg>
