<svg width="24" height="15" viewBox="0 0 24 15" fill="none"
    xmlns="http://www.w3.org/2000/svg">
    <g clip-path="url(#clip0_984_1280)">
        <path d="M0 3.58616C1.01877 3.25381 2.11609 3.24908 3.13768 3.57263C3.66027 3.73141 4.13445 3.94571 4.56164 4.10519C5.31633 4.40876 6.12912 4.54058 6.94106 4.49109C7.53662 4.47641 8.12774 4.3845 8.69964 4.21769C9.50204 3.9749 10.1827 3.4516 10.978 3.0237C11.7721 2.5889 12.6472 2.32231 13.5489 2.24052C14.9786 2.12661 16.4815 2.3459 17.7311 3.07852C18.8147 3.71432 19.5623 4.65626 20.6815 5.16675C21.1274 5.36973 21.5859 5.54381 22.0542 5.68792C21.5596 5.85052 21.0432 5.93694 20.5227 5.94423C19.9776 5.94913 19.4351 5.8684 18.9151 5.70501C17.9895 5.42022 17.1928 4.9674 16.3014 4.84209C15.8061 4.77284 15.3045 4.76018 14.8063 4.80435C14.1313 4.85277 13.4635 4.97309 12.8505 5.25077C11.9826 5.65374 11.2037 6.27672 10.2738 6.62203C8.45971 7.32831 6.01051 7.17951 4.32811 6.18986C3.67095 5.81323 3.0672 5.24507 2.52182 4.81859C1.77354 4.21911 0.936251 3.87522 0.00285069 3.58402L0 3.58616Z" fill="#2E3193"/>
        <path d="M1.94934 8.32296C2.96804 7.99037 4.06535 7.98539 5.08703 8.30871C5.6089 8.46749 6.08379 8.68179 6.51098 8.84127C7.26531 9.14522 8.07796 9.27705 8.88969 9.22716C9.48542 9.21242 10.0767 9.12077 10.649 8.95448C11.4514 8.71098 12.132 8.18768 12.9273 7.75978C13.7216 7.32529 14.5967 7.05871 15.4983 6.97661C16.9279 6.8634 18.4309 7.08198 19.6797 7.8146C20.764 8.4504 21.5116 9.39234 22.6308 9.90282C23.0766 10.1062 23.5351 10.2803 24.0035 10.424C23.5088 10.5869 22.9921 10.6734 22.4713 10.6803C21.9265 10.6855 21.3842 10.6048 20.8644 10.4411C19.9389 10.1563 19.1422 9.70418 18.25 9.57888C17.7548 9.50885 17.2531 9.49619 16.7549 9.54114C16.0799 9.58885 15.4114 9.70917 14.7991 9.98755C13.9312 10.3898 13.1523 11.0128 12.2225 11.3581C10.4076 12.0644 7.95842 11.9163 6.27674 10.9259C5.61887 10.5493 5.01511 9.98114 4.47045 9.55538C3.72216 8.9559 2.88488 8.61201 1.95148 8.32082L1.94934 8.32296Z" fill="#2E3193"/>
        <path d="M2.5332 1.10856C2.5332 1.10856 4.80298 2.66637 6.54091 2.56384C8.27884 2.46132 10.696 0.583837 12.9003 0.944097C12.9003 0.944097 11.0491 -0.202186 8.66118 0.0320536C6.27321 0.266294 5.10771 2.01064 2.5332 1.10856Z" fill="#2E3193"/>
        <path d="M10.7672 12.9066C10.7672 12.9066 13.037 14.4644 14.7749 14.3619C16.5129 14.2594 18.93 12.3819 21.1343 12.7415C21.1343 12.7415 19.2832 11.5952 16.8952 11.8294C14.5072 12.0637 13.3417 13.808 10.7672 12.9066Z" fill="#2E3193"/>
    </g>
    <defs>
        <clipPath id="clip0_984_1280">
            <rect width="24" height="14.367" fill="white"/>
        </clipPath>
    </defs>
</svg>
